<svg width="17" height="19" viewBox="0 0 17 19" fill="none" xmlns="http://www.w3.org/2000/svg">
<path d="M10.466 11.5681C10.466 11.5681 10.5915 11.4425 10.8426 11.1914C11.0938 10.9403 11.2193 10.4598 11.2193 9.75001C11.2193 9.04019 10.9682 8.43416 10.466 7.93193C9.96373 7.4297 9.3577 7.17858 8.64788 7.17858C7.93806 7.17858 7.33203 7.4297 6.8298 7.93193C6.32757 8.43416 6.07645 9.04019 6.07645 9.75001C6.07645 10.4598 6.32757 11.0659 6.8298 11.5681C7.33203 12.0703 7.93806 12.3214 8.64788 12.3214C9.3577 12.3214 9.96373 12.0703 10.466 11.5681ZM11.4503 6.94755C11.4503 6.94755 11.6429 7.14008 12.0279 7.52512C12.4129 7.91016 12.6055 8.65179 12.6055 9.75001C12.6055 10.8482 12.2204 11.7824 11.4503 12.5525C10.6802 13.3226 9.74609 13.7076 8.64788 13.7076C7.54966 13.7076 6.61551 13.3226 5.84542 12.5525C5.07534 11.7824 4.69029 10.8482 4.69029 9.75001C4.69029 8.65179 5.07534 7.71764 5.84542 6.94755C6.61551 6.17746 7.54966 5.79242 8.64788 5.79242C9.74609 5.79242 10.6802 6.17746 11.4503 6.94755ZM13.4191 4.9788C13.4191 4.9788 13.4643 5.024 13.5547 5.11441C13.6451 5.20481 13.6903 5.37724 13.6903 5.63171C13.6903 5.88617 13.5999 6.1038 13.4191 6.28461C13.2383 6.46541 13.0206 6.55581 12.7662 6.55581C12.5117 6.55581 12.2941 6.46541 12.1133 6.28461C11.9325 6.1038 11.8421 5.88617 11.8421 5.63171C11.8421 5.37724 11.9325 5.15961 12.1133 4.9788C12.2941 4.798 12.5117 4.7076 12.7662 4.7076C13.0206 4.7076 13.2383 4.798 13.4191 4.9788ZM9.41629 3.41686C9.41629 3.41686 9.29994 3.4177 9.06724 3.41937C8.83454 3.42105 8.69475 3.42188 8.64788 3.42188C8.601 3.42188 8.34487 3.42021 7.87946 3.41686C7.41406 3.41351 7.06083 3.41351 6.81975 3.41686C6.57868 3.42021 6.25558 3.43025 5.85045 3.447C5.44531 3.46374 5.10045 3.49722 4.81585 3.54744C4.53125 3.59766 4.29185 3.65961 4.09766 3.73327C3.76283 3.8672 3.46819 4.06139 3.21373 4.31586C2.95926 4.57032 2.76507 4.86496 2.63114 5.19979C2.55748 5.39398 2.49554 5.63338 2.44531 5.91798C2.39509 6.20258 2.36161 6.54744 2.34487 6.95258C2.32812 7.35771 2.31808 7.68081 2.31473 7.92188C2.31138 8.16296 2.31138 8.51619 2.31473 8.98159C2.31808 9.447 2.31975 9.70313 2.31975 9.75001C2.31975 9.79688 2.31808 10.053 2.31473 10.5184C2.31138 10.9838 2.31138 11.3371 2.31473 11.5781C2.31808 11.8192 2.32812 12.1423 2.34487 12.5474C2.36161 12.9526 2.39509 13.2974 2.44531 13.582C2.49554 13.8666 2.55748 14.106 2.63114 14.3002C2.76507 14.6351 2.95926 14.9297 3.21373 15.1842C3.46819 15.4386 3.76283 15.6328 4.09766 15.7667C4.29185 15.8404 4.53125 15.9024 4.81585 15.9526C5.10045 16.0028 5.44531 16.0363 5.85045 16.053C6.25558 16.0698 6.57868 16.0798 6.81975 16.0832C7.06083 16.0865 7.41406 16.0865 7.87946 16.0832C8.34487 16.0798 8.601 16.0781 8.64788 16.0781C8.69475 16.0781 8.95089 16.0798 9.41629 16.0832C9.8817 16.0865 10.2349 16.0865 10.476 16.0832C10.7171 16.0798 11.0402 16.0698 11.4453 16.053C11.8504 16.0363 12.1953 16.0028 12.4799 15.9526C12.7645 15.9024 13.0039 15.8404 13.1981 15.7667C13.5329 15.6328 13.8276 15.4386 14.082 15.1842C14.3365 14.9297 14.5307 14.6351 14.6646 14.3002C14.7383 14.106 14.8002 13.8666 14.8504 13.582C14.9007 13.2974 14.9342 12.9526 14.9509 12.5474C14.9676 12.1423 14.9777 11.8192 14.981 11.5781C14.9844 11.3371 14.9844 10.9838 14.981 10.5184C14.9777 10.053 14.976 9.79688 14.976 9.75001C14.976 9.70313 14.9777 9.447 14.981 8.98159C14.9844 8.51619 14.9844 8.16296 14.981 7.92188C14.9777 7.68081 14.9676 7.35771 14.9509 6.95258C14.9342 6.54744 14.9007 6.20258 14.8504 5.91798C14.8002 5.63338 14.7383 5.39398 14.6646 5.19979C14.5307 4.86496 14.3365 4.57032 14.082 4.31586C13.8276 4.06139 13.5329 3.8672 13.1981 3.73327C13.0039 3.65961 12.7645 3.59766 12.4799 3.54744C12.1953 3.49722 11.8504 3.46374 11.4453 3.447C11.0402 3.43025 10.7171 3.42021 10.476 3.41686C10.2349 3.41351 9.8817 3.41351 9.41629 3.41686ZM16.3119 6.56586C16.3454 7.15514 16.3622 8.21653 16.3622 9.75001C16.3622 11.2835 16.3454 12.3449 16.3119 12.9342C16.245 14.327 15.8298 15.4051 15.0664 16.1685C14.303 16.9319 13.2249 17.3471 11.832 17.4141C11.2427 17.4476 10.1814 17.4643 8.64788 17.4643C7.1144 17.4643 6.05301 17.4476 5.46373 17.4141C4.07087 17.3471 2.99275 16.9319 2.22935 16.1685C1.46596 15.4051 1.05078 14.327 0.983817 12.9342C0.950335 12.3449 0.933594 11.2835 0.933594 9.75001C0.933594 8.21653 0.950335 7.15514 0.983817 6.56586C1.05078 5.173 1.46596 4.09488 2.22935 3.33148C2.99275 2.56809 4.07087 2.15291 5.46373 2.08595C6.05301 2.05246 7.1144 2.03572 8.64788 2.03572C10.1814 2.03572 11.2427 2.05246 11.832 2.08595C13.2249 2.15291 14.303 2.56809 15.0664 3.33148C15.8298 4.09488 16.245 5.173 16.3119 6.56586Z" fill="#3F729B"/>
</svg>
