<svg width="17" height="18" viewBox="0 0 17 18" fill="none" xmlns="http://www.w3.org/2000/svg">
<path d="M10.4181 10.8181C10.4181 10.8181 10.5437 10.6925 10.7948 10.4414C11.0459 10.1903 11.1715 9.70983 11.1715 9.00001C11.1715 8.29019 10.9203 7.68416 10.4181 7.18193C9.91588 6.6797 9.30985 6.42858 8.60003 6.42858C7.89021 6.42858 7.28418 6.6797 6.78195 7.18193C6.27972 7.68416 6.0286 8.29019 6.0286 9.00001C6.0286 9.70983 6.27972 10.3159 6.78195 10.8181C7.28418 11.3203 7.89021 11.5714 8.60003 11.5714C9.30985 11.5714 9.91588 11.3203 10.4181 10.8181ZM11.4025 6.19755C11.4025 6.19755 11.595 6.39008 11.9801 6.77512C12.3651 7.16016 12.5576 7.90179 12.5576 9.00001C12.5576 10.0982 12.1726 11.0324 11.4025 11.8025C10.6324 12.5726 9.69824 12.9576 8.60003 12.9576C7.50181 12.9576 6.56766 12.5726 5.79757 11.8025C5.02748 11.0324 4.64244 10.0982 4.64244 9.00001C4.64244 7.90179 5.02748 6.96764 5.79757 6.19755C6.56766 5.42746 7.50181 5.04242 8.60003 5.04242C9.69824 5.04242 10.6324 5.42746 11.4025 6.19755ZM13.3712 4.2288C13.3712 4.2288 13.4164 4.274 13.5068 4.36441C13.5972 4.45481 13.6424 4.62724 13.6424 4.88171C13.6424 5.13617 13.552 5.3538 13.3712 5.53461C13.1904 5.71541 12.9728 5.80581 12.7183 5.80581C12.4639 5.80581 12.2462 5.71541 12.0654 5.53461C11.8846 5.3538 11.7942 5.13617 11.7942 4.88171C11.7942 4.62724 11.8846 4.40961 12.0654 4.2288C12.2462 4.048 12.4639 3.9576 12.7183 3.9576C12.9728 3.9576 13.1904 4.048 13.3712 4.2288ZM9.36844 2.66686C9.36844 2.66686 9.25209 2.6677 9.01939 2.66937C8.78669 2.67105 8.6469 2.67188 8.60003 2.67188C8.55315 2.67188 8.29701 2.67021 7.83161 2.66686C7.36621 2.66351 7.01297 2.66351 6.7719 2.66686C6.53083 2.67021 6.20773 2.68025 5.80259 2.697C5.39746 2.71374 5.05259 2.74722 4.768 2.79744C4.4834 2.84766 4.244 2.90961 4.0498 2.98327C3.71498 3.1172 3.42034 3.31139 3.16588 3.56586C2.91141 3.82032 2.71722 4.11496 2.58329 4.44979C2.50963 4.64398 2.44768 4.88338 2.39746 5.16798C2.34724 5.45258 2.31376 5.79744 2.29701 6.20258C2.28027 6.60771 2.27023 6.93081 2.26688 7.17188C2.26353 7.41296 2.26353 7.76619 2.26688 8.23159C2.27023 8.697 2.2719 8.95313 2.2719 9.00001C2.2719 9.04688 2.27023 9.30302 2.26688 9.76842C2.26353 10.2338 2.26353 10.5871 2.26688 10.8281C2.27023 11.0692 2.28027 11.3923 2.29701 11.7974C2.31376 12.2026 2.34724 12.5474 2.39746 12.832C2.44768 13.1166 2.50963 13.356 2.58329 13.5502C2.71722 13.8851 2.91141 14.1797 3.16588 14.4342C3.42034 14.6886 3.71498 14.8828 4.0498 15.0167C4.244 15.0904 4.4834 15.1524 4.768 15.2026C5.05259 15.2528 5.39746 15.2863 5.80259 15.303C6.20773 15.3198 6.53083 15.3298 6.7719 15.3332C7.01297 15.3365 7.36621 15.3365 7.83161 15.3332C8.29701 15.3298 8.55315 15.3281 8.60003 15.3281C8.6469 15.3281 8.90304 15.3298 9.36844 15.3332C9.83385 15.3365 10.1871 15.3365 10.4282 15.3332C10.6692 15.3298 10.9923 15.3198 11.3975 15.303C11.8026 15.2863 12.1475 15.2528 12.4321 15.2026C12.7167 15.1524 12.9561 15.0904 13.1503 15.0167C13.4851 14.8828 13.7797 14.6886 14.0342 14.4342C14.2886 14.1797 14.4828 13.8851 14.6168 13.5502C14.6904 13.356 14.7524 13.1166 14.8026 12.832C14.8528 12.5474 14.8863 12.2026 14.903 11.7974C14.9198 11.3923 14.9298 11.0692 14.9332 10.8281C14.9365 10.5871 14.9365 10.2338 14.9332 9.76842C14.9298 9.30302 14.9282 9.04688 14.9282 9.00001C14.9282 8.95313 14.9298 8.697 14.9332 8.23159C14.9365 7.76619 14.9365 7.41296 14.9332 7.17188C14.9298 6.93081 14.9198 6.60771 14.903 6.20258C14.8863 5.79744 14.8528 5.45258 14.8026 5.16798C14.7524 4.88338 14.6904 4.64398 14.6168 4.44979C14.4828 4.11496 14.2886 3.82032 14.0342 3.56586C13.7797 3.31139 13.4851 3.1172 13.1503 2.98327C12.9561 2.90961 12.7167 2.84766 12.4321 2.79744C12.1475 2.74722 11.8026 2.71374 11.3975 2.697C10.9923 2.68025 10.6692 2.67021 10.4282 2.66686C10.1871 2.66351 9.83385 2.66351 9.36844 2.66686ZM16.2641 5.81586C16.2976 6.40514 16.3143 7.46653 16.3143 9.00001C16.3143 10.5335 16.2976 11.5949 16.2641 12.1842C16.1971 13.577 15.7819 14.6551 15.0186 15.4185C14.2552 16.1819 13.177 16.5971 11.7842 16.6641C11.1949 16.6976 10.1335 16.7143 8.60003 16.7143C7.06655 16.7143 6.00516 16.6976 5.41588 16.6641C4.02302 16.5971 2.94489 16.1819 2.1815 15.4185C1.41811 14.6551 1.00293 13.577 0.935965 12.1842C0.902483 11.5949 0.885742 10.5335 0.885742 9.00001C0.885742 7.46653 0.902483 6.40514 0.935965 5.81586C1.00293 4.423 1.41811 3.34488 2.1815 2.58148C2.94489 1.81809 4.02302 1.40291 5.41588 1.33595C6.00516 1.30246 7.06655 1.28572 8.60003 1.28572C10.1335 1.28572 11.1949 1.30246 11.7842 1.33595C13.177 1.40291 14.2552 1.81809 15.0186 2.58148C15.7819 3.34488 16.1971 4.423 16.2641 5.81586Z" fill="#3F729B"/>
</svg>
