<svg width="16" height="19" viewBox="0 0 16 19" fill="none" xmlns="http://www.w3.org/2000/svg">
<path d="M9.53823 11.5681C9.53823 11.5681 9.66378 11.4425 9.9149 11.1914C10.166 10.9403 10.2916 10.4598 10.2916 9.75001C10.2916 9.04019 10.0405 8.43416 9.53823 7.93193C9.03599 7.4297 8.42997 7.17858 7.72015 7.17858C7.01032 7.17858 6.4043 7.4297 5.90206 7.93193C5.39983 8.43416 5.14872 9.04019 5.14872 9.75001C5.14872 10.4598 5.39983 11.0659 5.90206 11.5681C6.4043 12.0703 7.01032 12.3214 7.72015 12.3214C8.42997 12.3214 9.03599 12.0703 9.53823 11.5681ZM10.5226 6.94755C10.5226 6.94755 10.7151 7.14008 11.1002 7.52512C11.4852 7.91016 11.6777 8.65179 11.6777 9.75001C11.6777 10.8482 11.2927 11.7824 10.5226 12.5525C9.75251 13.3226 8.81836 13.7076 7.72015 13.7076C6.62193 13.7076 5.68778 13.3226 4.91769 12.5525C4.1476 11.7824 3.76256 10.8482 3.76256 9.75001C3.76256 8.65179 4.1476 7.71764 4.91769 6.94755C5.68778 6.17746 6.62193 5.79242 7.72015 5.79242C8.81836 5.79242 9.75251 6.17746 10.5226 6.94755ZM12.4914 4.9788C12.4914 4.9788 12.5366 5.024 12.627 5.11441C12.7174 5.20481 12.7626 5.37724 12.7626 5.63171C12.7626 5.88617 12.6722 6.1038 12.4914 6.28461C12.3105 6.46541 12.0929 6.55581 11.8384 6.55581C11.584 6.55581 11.3664 6.46541 11.1855 6.28461C11.0047 6.1038 10.9143 5.88617 10.9143 5.63171C10.9143 5.37724 11.0047 5.15961 11.1855 4.9788C11.3664 4.798 11.584 4.7076 11.8384 4.7076C12.0929 4.7076 12.3105 4.798 12.4914 4.9788ZM8.48856 3.41686C8.48856 3.41686 8.37221 3.4177 8.13951 3.41937C7.90681 3.42105 7.76702 3.42188 7.72015 3.42188C7.67327 3.42188 7.41713 3.42021 6.95173 3.41686C6.48633 3.41351 6.13309 3.41351 5.89202 3.41686C5.65095 3.42021 5.32785 3.43025 4.92271 3.447C4.51758 3.46374 4.17271 3.49722 3.88811 3.54744C3.60352 3.59766 3.36412 3.65961 3.16992 3.73327C2.8351 3.8672 2.54046 4.06139 2.28599 4.31586C2.03153 4.57032 1.83733 4.86496 1.7034 5.19979C1.62974 5.39398 1.5678 5.63338 1.51758 5.91798C1.46735 6.20258 1.43387 6.54744 1.41713 6.95258C1.40039 7.35771 1.39035 7.68081 1.387 7.92188C1.38365 8.16296 1.38365 8.51619 1.387 8.98159C1.39035 9.447 1.39202 9.70313 1.39202 9.75001C1.39202 9.79688 1.39035 10.053 1.387 10.5184C1.38365 10.9838 1.38365 11.3371 1.387 11.5781C1.39035 11.8192 1.40039 12.1423 1.41713 12.5474C1.43387 12.9526 1.46735 13.2974 1.51758 13.582C1.5678 13.8666 1.62974 14.106 1.7034 14.3002C1.83733 14.6351 2.03153 14.9297 2.28599 15.1842C2.54046 15.4386 2.8351 15.6328 3.16992 15.7667C3.36412 15.8404 3.60352 15.9024 3.88811 15.9526C4.17271 16.0028 4.51758 16.0363 4.92271 16.053C5.32785 16.0698 5.65095 16.0798 5.89202 16.0832C6.13309 16.0865 6.48633 16.0865 6.95173 16.0832C7.41713 16.0798 7.67327 16.0781 7.72015 16.0781C7.76702 16.0781 8.02316 16.0798 8.48856 16.0832C8.95396 16.0865 9.3072 16.0865 9.54827 16.0832C9.78934 16.0798 10.1124 16.0698 10.5176 16.053C10.9227 16.0363 11.2676 16.0028 11.5522 15.9526C11.8368 15.9024 12.0762 15.8404 12.2704 15.7667C12.6052 15.6328 12.8998 15.4386 13.1543 15.1842C13.4088 14.9297 13.603 14.6351 13.7369 14.3002C13.8105 14.106 13.8725 13.8666 13.9227 13.582C13.9729 13.2974 14.0064 12.9526 14.0232 12.5474C14.0399 12.1423 14.0499 11.8192 14.0533 11.5781C14.0566 11.3371 14.0566 10.9838 14.0533 10.5184C14.0499 10.053 14.0483 9.79688 14.0483 9.75001C14.0483 9.70313 14.0499 9.447 14.0533 8.98159C14.0566 8.51619 14.0566 8.16296 14.0533 7.92188C14.0499 7.68081 14.0399 7.35771 14.0232 6.95258C14.0064 6.54744 13.9729 6.20258 13.9227 5.91798C13.8725 5.63338 13.8105 5.39398 13.7369 5.19979C13.603 4.86496 13.4088 4.57032 13.1543 4.31586C12.8998 4.06139 12.6052 3.8672 12.2704 3.73327C12.0762 3.65961 11.8368 3.59766 11.5522 3.54744C11.2676 3.49722 10.9227 3.46374 10.5176 3.447C10.1124 3.43025 9.78934 3.42021 9.54827 3.41686C9.3072 3.41351 8.95396 3.41351 8.48856 3.41686ZM15.3842 6.56586C15.4177 7.15514 15.4344 8.21653 15.4344 9.75001C15.4344 11.2835 15.4177 12.3449 15.3842 12.9342C15.3172 14.327 14.9021 15.4051 14.1387 16.1685C13.3753 16.9319 12.2972 17.3471 10.9043 17.4141C10.315 17.4476 9.25363 17.4643 7.72015 17.4643C6.18666 17.4643 5.12528 17.4476 4.53599 17.4141C3.14314 17.3471 2.06501 16.9319 1.30162 16.1685C0.538225 15.4051 0.123047 14.327 0.0560826 12.9342C0.0226004 12.3449 0.00585938 11.2835 0.00585938 9.75001C0.00585938 8.21653 0.0226004 7.15514 0.0560826 6.56586C0.123047 5.173 0.538225 4.09488 1.30162 3.33148C2.06501 2.56809 3.14314 2.15291 4.53599 2.08595C5.12528 2.05246 6.18666 2.03572 7.72015 2.03572C9.25363 2.03572 10.315 2.05246 10.9043 2.08595C12.2972 2.15291 13.3753 2.56809 14.1387 3.33148C14.9021 4.09488 15.3172 5.173 15.3842 6.56586Z" fill="#3F729B"/>
</svg>
