<svg width="16" height="19" viewBox="0 0 16 19" fill="none" xmlns="http://www.w3.org/2000/svg">
<path d="M9.53823 11.3181C9.53823 11.3181 9.66378 11.1925 9.9149 10.9414C10.166 10.6903 10.2916 10.2098 10.2916 9.50001C10.2916 8.79019 10.0405 8.18416 9.53823 7.68193C9.03599 7.1797 8.42997 6.92858 7.72015 6.92858C7.01032 6.92858 6.4043 7.1797 5.90206 7.68193C5.39983 8.18416 5.14872 8.79019 5.14872 9.50001C5.14872 10.2098 5.39983 10.8159 5.90206 11.3181C6.4043 11.8203 7.01032 12.0714 7.72015 12.0714C8.42997 12.0714 9.03599 11.8203 9.53823 11.3181ZM10.5226 6.69755C10.5226 6.69755 10.7151 6.89008 11.1002 7.27512C11.4852 7.66016 11.6777 8.40179 11.6777 9.50001C11.6777 10.5982 11.2927 11.5324 10.5226 12.3025C9.75251 13.0726 8.81836 13.4576 7.72015 13.4576C6.62193 13.4576 5.68778 13.0726 4.91769 12.3025C4.1476 11.5324 3.76256 10.5982 3.76256 9.50001C3.76256 8.40179 4.1476 7.46764 4.91769 6.69755C5.68778 5.92746 6.62193 5.54242 7.72015 5.54242C8.81836 5.54242 9.75251 5.92746 10.5226 6.69755ZM12.4914 4.7288C12.4914 4.7288 12.5366 4.774 12.627 4.86441C12.7174 4.95481 12.7626 5.12724 12.7626 5.38171C12.7626 5.63617 12.6722 5.8538 12.4914 6.03461C12.3105 6.21541 12.0929 6.30581 11.8384 6.30581C11.584 6.30581 11.3664 6.21541 11.1855 6.03461C11.0047 5.8538 10.9143 5.63617 10.9143 5.38171C10.9143 5.12724 11.0047 4.90961 11.1855 4.7288C11.3664 4.548 11.584 4.4576 11.8384 4.4576C12.0929 4.4576 12.3105 4.548 12.4914 4.7288ZM8.48856 3.16686C8.48856 3.16686 8.37221 3.1677 8.13951 3.16937C7.90681 3.17105 7.76702 3.17188 7.72015 3.17188C7.67327 3.17188 7.41713 3.17021 6.95173 3.16686C6.48633 3.16351 6.13309 3.16351 5.89202 3.16686C5.65095 3.17021 5.32785 3.18025 4.92271 3.197C4.51758 3.21374 4.17271 3.24722 3.88811 3.29744C3.60352 3.34766 3.36412 3.40961 3.16992 3.48327C2.8351 3.6172 2.54046 3.81139 2.28599 4.06586C2.03153 4.32032 1.83733 4.61496 1.7034 4.94979C1.62974 5.14398 1.5678 5.38338 1.51758 5.66798C1.46735 5.95258 1.43387 6.29744 1.41713 6.70258C1.40039 7.10771 1.39035 7.43081 1.387 7.67188C1.38365 7.91296 1.38365 8.26619 1.387 8.73159C1.39035 9.197 1.39202 9.45313 1.39202 9.50001C1.39202 9.54688 1.39035 9.80302 1.387 10.2684C1.38365 10.7338 1.38365 11.0871 1.387 11.3281C1.39035 11.5692 1.40039 11.8923 1.41713 12.2974C1.43387 12.7026 1.46735 13.0474 1.51758 13.332C1.5678 13.6166 1.62974 13.856 1.7034 14.0502C1.83733 14.3851 2.03153 14.6797 2.28599 14.9342C2.54046 15.1886 2.8351 15.3828 3.16992 15.5167C3.36412 15.5904 3.60352 15.6524 3.88811 15.7026C4.17271 15.7528 4.51758 15.7863 4.92271 15.803C5.32785 15.8198 5.65095 15.8298 5.89202 15.8332C6.13309 15.8365 6.48633 15.8365 6.95173 15.8332C7.41713 15.8298 7.67327 15.8281 7.72015 15.8281C7.76702 15.8281 8.02316 15.8298 8.48856 15.8332C8.95396 15.8365 9.3072 15.8365 9.54827 15.8332C9.78934 15.8298 10.1124 15.8198 10.5176 15.803C10.9227 15.7863 11.2676 15.7528 11.5522 15.7026C11.8368 15.6524 12.0762 15.5904 12.2704 15.5167C12.6052 15.3828 12.8998 15.1886 13.1543 14.9342C13.4088 14.6797 13.603 14.3851 13.7369 14.0502C13.8105 13.856 13.8725 13.6166 13.9227 13.332C13.9729 13.0474 14.0064 12.7026 14.0232 12.2974C14.0399 11.8923 14.0499 11.5692 14.0533 11.3281C14.0566 11.0871 14.0566 10.7338 14.0533 10.2684C14.0499 9.80302 14.0483 9.54688 14.0483 9.50001C14.0483 9.45313 14.0499 9.197 14.0533 8.73159C14.0566 8.26619 14.0566 7.91296 14.0533 7.67188C14.0499 7.43081 14.0399 7.10771 14.0232 6.70258C14.0064 6.29744 13.9729 5.95258 13.9227 5.66798C13.8725 5.38338 13.8105 5.14398 13.7369 4.94979C13.603 4.61496 13.4088 4.32032 13.1543 4.06586C12.8998 3.81139 12.6052 3.6172 12.2704 3.48327C12.0762 3.40961 11.8368 3.34766 11.5522 3.29744C11.2676 3.24722 10.9227 3.21374 10.5176 3.197C10.1124 3.18025 9.78934 3.17021 9.54827 3.16686C9.3072 3.16351 8.95396 3.16351 8.48856 3.16686ZM15.3842 6.31586C15.4177 6.90514 15.4344 7.96653 15.4344 9.50001C15.4344 11.0335 15.4177 12.0949 15.3842 12.6842C15.3172 14.077 14.9021 15.1551 14.1387 15.9185C13.3753 16.6819 12.2972 17.0971 10.9043 17.1641C10.315 17.1976 9.25363 17.2143 7.72015 17.2143C6.18666 17.2143 5.12528 17.1976 4.53599 17.1641C3.14314 17.0971 2.06501 16.6819 1.30162 15.9185C0.538225 15.1551 0.123047 14.077 0.0560826 12.6842C0.0226004 12.0949 0.00585938 11.0335 0.00585938 9.50001C0.00585938 7.96653 0.0226004 6.90514 0.0560826 6.31586C0.123047 4.923 0.538225 3.84488 1.30162 3.08148C2.06501 2.31809 3.14314 1.90291 4.53599 1.83595C5.12528 1.80246 6.18666 1.78572 7.72015 1.78572C9.25363 1.78572 10.315 1.80246 10.9043 1.83595C12.2972 1.90291 13.3753 2.31809 14.1387 3.08148C14.9021 3.84488 15.3172 4.923 15.3842 6.31586Z" fill="#3F729B"/>
</svg>
