<svg width="16" height="18" viewBox="0 0 16 18" fill="none" xmlns="http://www.w3.org/2000/svg">
<path d="M12.5416 1.28572C13.3384 1.28572 14.0198 1.56865 14.5857 2.1345C15.1515 2.70034 15.4344 3.38171 15.4344 4.17858V13.8214C15.4344 14.6183 15.1515 15.2997 14.5857 15.8655C14.0198 16.4314 13.3384 16.7143 12.5416 16.7143H10.6532V10.7377H12.6521L12.9534 8.40738H10.6532V6.92077C10.6532 6.54577 10.7319 6.26452 10.8892 6.07702C11.0466 5.88952 11.353 5.79577 11.8083 5.79577L13.0338 5.78572V3.70648C12.6119 3.64621 12.0159 3.61608 11.2458 3.61608C10.3351 3.61608 9.60686 3.88394 9.0611 4.41965C8.51535 4.95537 8.24247 5.71206 8.24247 6.68974V8.40738H6.23354V10.7377H8.24247V16.7143H2.89872C2.10184 16.7143 1.42048 16.4314 0.854632 15.8655C0.288783 15.2997 0.00585938 14.6183 0.00585938 13.8214V4.17858C0.00585938 3.38171 0.288783 2.70034 0.854632 2.1345C1.42048 1.56865 2.10184 1.28572 2.89872 1.28572H12.5416Z" fill="#3B5998"/>
</svg>
