<svg width="16" height="19" viewBox="0 0 16 19" fill="none" xmlns="http://www.w3.org/2000/svg">
<path d="M12.5416 1.78572C13.3384 1.78572 14.0198 2.06865 14.5857 2.6345C15.1515 3.20034 15.4344 3.88171 15.4344 4.67858V14.3214C15.4344 15.1183 15.1515 15.7997 14.5857 16.3655C14.0198 16.9314 13.3384 17.2143 12.5416 17.2143H10.6532V11.2377H12.6521L12.9534 8.90738H10.6532V7.42077C10.6532 7.04577 10.7319 6.76452 10.8892 6.57702C11.0466 6.38952 11.353 6.29577 11.8083 6.29577L13.0338 6.28572V4.20648C12.6119 4.14621 12.0159 4.11608 11.2458 4.11608C10.3351 4.11608 9.60686 4.38394 9.0611 4.91965C8.51535 5.45537 8.24247 6.21206 8.24247 7.18974V8.90738H6.23354V11.2377H8.24247V17.2143H2.89872C2.10184 17.2143 1.42048 16.9314 0.854632 16.3655C0.288783 15.7997 0.00585938 15.1183 0.00585938 14.3214V4.67858C0.00585938 3.88171 0.288783 3.20034 0.854632 2.6345C1.42048 2.06865 2.10184 1.78572 2.89872 1.78572H12.5416Z" fill="#3B5998"/>
</svg>
