<svg width="17" height="20" viewBox="0 0 17 20" fill="none" xmlns="http://www.w3.org/2000/svg">
<path d="M13.985 2.39214C14.7815 2.41495 15.4545 2.71727 16.0039 3.29909C16.5533 3.8809 16.8166 4.57008 16.7938 5.36663L16.5178 15.0055C16.4949 15.8021 16.1926 16.4751 15.6108 17.0245C15.029 17.5739 14.3398 17.8372 13.5433 17.8144L11.6557 17.7603L11.8268 11.7862L13.8248 11.8434L14.1927 9.52266L11.8935 9.45681L11.936 7.97081C11.9468 7.59597 12.0335 7.31709 12.1961 7.13417C12.3588 6.95125 12.6677 6.86631 13.1229 6.87935L14.3481 6.90439L14.4077 4.826C13.9877 4.75368 13.3928 4.70649 12.623 4.68445C11.7127 4.65837 10.9771 4.90527 10.4162 5.42514C9.85534 5.94501 9.56091 6.69359 9.53292 7.67087L9.48374 9.3878L7.47564 9.33028L7.40892 11.6597L9.41703 11.7172L9.24593 17.6913L3.90437 17.5383C3.10782 17.5155 2.43484 17.2132 1.88542 16.6314C1.336 16.0496 1.0727 15.3604 1.09551 14.5638L1.37158 4.92493C1.39439 4.12838 1.69671 3.4554 2.27852 2.90598C2.86034 2.35657 3.54952 2.09326 4.34607 2.11608L13.985 2.39214Z" fill="#3B5998"/>
</svg>
