<svg width="16" height="19" viewBox="0 0 16 19" fill="none" xmlns="http://www.w3.org/2000/svg">
<path d="M12.5416 2.03572C13.3384 2.03572 14.0198 2.31865 14.5857 2.8845C15.1515 3.45034 15.4344 4.13171 15.4344 4.92858V14.5714C15.4344 15.3683 15.1515 16.0497 14.5857 16.6155C14.0198 17.1814 13.3384 17.4643 12.5416 17.4643H10.6532V11.4877H12.6521L12.9534 9.15738H10.6532V7.67077C10.6532 7.29577 10.7319 7.01452 10.8892 6.82702C11.0466 6.63952 11.353 6.54577 11.8083 6.54577L13.0338 6.53572V4.45648C12.6119 4.39621 12.0159 4.36608 11.2458 4.36608C10.3351 4.36608 9.60686 4.63394 9.0611 5.16965C8.51535 5.70537 8.24247 6.46206 8.24247 7.43974V9.15738H6.23354V11.4877H8.24247V17.4643H2.89872C2.10184 17.4643 1.42048 17.1814 0.854632 16.6155C0.288783 16.0497 0.00585938 15.3683 0.00585938 14.5714V4.92858C0.00585938 4.13171 0.288783 3.45034 0.854632 2.8845C1.42048 2.31865 2.10184 2.03572 2.89872 2.03572H12.5416Z" fill="#3B5998"/>
</svg>
